<svg xmlns="http://www.w3.org/2000/svg" viewBox="0 0 3137.59 2400.02"><defs><style>.cls-1{fill:#eee;}.cls-2{opacity:0.07;}.cls-3,.cls-6,.cls-7,.cls-8{fill:#357efc;}.cls-23,.cls-4,.cls-5{fill:#fff;}.cls-4,.cls-5{stroke:#33658a;}.cls-16,.cls-4,.cls-5{stroke-miterlimit:10;}.cls-4{stroke-width:8px;}.cls-5{stroke-width:4px;}.cls-6{opacity:0.45;}.cls-14,.cls-21,.cls-6,.cls-7,.cls-8{isolation:isolate;}.cls-7{opacity:0.26;}.cls-8{opacity:0.25;}.cls-9{fill:#33658a;}.cls-10{fill:#f78f20;}.cls-11{fill:#f6ba87;}.cls-12,.cls-14{fill:#f19655;}.cls-13{fill:#f9c89a;}.cls-14{opacity:0.85;}.cls-15{fill:#553130;}.cls-16{fill:none;stroke:#fff;}.cls-17{fill:#f7a82d;}.cls-18{fill:#c1560c;}.cls-19{fill:#000d21;}.cls-19,.cls-20,.cls-21{fill-rule:evenodd;}.cls-20,.cls-22{fill:#001d43;}.cls-21{fill:#70778e;opacity:0.29;}.cls-24{fill:#f8bc3e;}.cls-25{fill:#f29214;}.cls-26{fill:#ffc45c;}.cls-27{fill:#e32b2c;}.cls-28{opacity:0.2;}.cls-29{fill:#d92150;}.cls-30{fill:#eef2f9;}.cls-31{fill:#4a0659;}.cls-32{fill:#003e61;}.cls-33{fill:#8fc0fa;}.cls-34{fill:#b0c8ea;}.cls-35{fill:#fefefe;}.cls-36{fill:#0f111e;}</style></defs><g id="Layer_2" data-name="Layer 2"><g id="Layer_1-2" data-name="Layer 1"><path class="cls-1" d="M722.3,558s433.6-27.4,550.1-274.6-718.2-455.9-830.6-70.7S722.3,558,722.3,558Z"></path><path class="cls-1" d="M1977.7,2376.62s1142.2-59.2,1051.6-1259.5-1270.5-1189-1655.3-729-1270.6,221.7-1230,1072S1365.4,2469.42,1977.7,2376.62Z"></path><g class="cls-2"><path d="M956.1,347.32s-13.9,361.3,0,365.1,238,0,238,0,458.2-20,460.2-51.7,0-313.4,0-313.4Z"></path></g><path class="cls-3" d="M1734.2,647.82h366.3a9,9,0,0,1,9,9v126.8a9,9,0,0,1-9,9H1734.2a9,9,0,0,1-9-9V656.82A9,9,0,0,1,1734.2,647.82Z"></path><path class="cls-4" d="M2263,436.12v999.1a89.22,89.22,0,0,1-88.9,88.9H1777.5c-19.6,27.5-12.4,97.5-12.4,97.5-30-42.4-48.6-97.5-48.6-97.5H611.6a89.15,89.15,0,0,1-88.9-88.9V436.12a89.15,89.15,0,0,1,88.9-88.9H2174A89.31,89.31,0,0,1,2263,436.12Z"></path><rect class="cls-5" x="983.9" y="271.92" width="628.7" height="412.5"></rect><path class="cls-6" d="M1435.5,744.12h297.6a5.85,5.85,0,0,1,5.9,5.9v1.1a5.85,5.85,0,0,1-5.9,5.9H1435.5a5.85,5.85,0,0,1-5.9-5.9V750A5.91,5.91,0,0,1,1435.5,744.12Z"></path><path class="cls-7" d="M1435.5,768.42h297.6a5.85,5.85,0,0,1,5.9,5.9v1.1a5.85,5.85,0,0,1-5.9,5.9H1435.5a5.85,5.85,0,0,1-5.9-5.9v-1.1A5.91,5.91,0,0,1,1435.5,768.42Z"></path><path class="cls-8" d="M1435.5,792.72h205.7a5.85,5.85,0,0,1,5.9,5.9v1.1a5.85,5.85,0,0,1-5.9,5.9H1435.5a5.85,5.85,0,0,1-5.9-5.9v-1.1A5.91,5.91,0,0,1,1435.5,792.72Z"></path><path class="cls-9" d="M1339.1,326.22h222.5a5.85,5.85,0,0,1,5.9,5.9v1.1a5.85,5.85,0,0,1-5.9,5.9H1339.1a5.85,5.85,0,0,1-5.9-5.9v-1.1A6,6,0,0,1,1339.1,326.22Z"></path><path class="cls-9" d="M1339.1,350.52h222.5a5.85,5.85,0,0,1,5.9,5.9v1.1a5.85,5.85,0,0,1-5.9,5.9H1339.1a5.85,5.85,0,0,1-5.9-5.9v-1.1A6,6,0,0,1,1339.1,350.52Z"></path><path class="cls-9" d="M1339.1,374.82H1492a5.85,5.85,0,0,1,5.9,5.9v1.1a5.85,5.85,0,0,1-5.9,5.9H1339.1a5.85,5.85,0,0,1-5.9-5.9v-1.1A6,6,0,0,1,1339.1,374.82Z"></path><rect class="cls-9" x="1024.6" y="324.02" width="278" height="206.7"></rect><g class="cls-2"><path d="M1104.9,684.42V515.82s-3-37.7,23.8-37.7c31.2.1,483.3,0,483.3,0v206.3Z"></path></g><rect class="cls-5" x="1120.8" y="496.02" width="751.7" height="815.6"></rect><path class="cls-1" d="M1120.8,944.32s176,153.2,256.4,196.4,230.6,13.4,299-40.9,196.4-172.2,196.4-172.2v265.2s-409.8,167.1-488.3,139.3-263.5-209.6-263.5-209.6Z"></path><path class="cls-9" d="M1197.9,922h358.4a3.8,3.8,0,0,1,3.8,3.8v3.7a3.8,3.8,0,0,1-3.8,3.8H1197.9a3.8,3.8,0,0,1-3.8-3.8v-3.7A3.74,3.74,0,0,1,1197.9,922Z"></path><path class="cls-9" d="M1197.9,949.72h358.4a3.8,3.8,0,0,1,3.8,3.8v3.7a3.8,3.8,0,0,1-3.8,3.8H1197.9a3.8,3.8,0,0,1-3.8-3.8v-3.7A3.8,3.8,0,0,1,1197.9,949.72Z"></path><path class="cls-9" d="M1197.9,977.52h358.4a3.8,3.8,0,0,1,3.8,3.8V985a3.8,3.8,0,0,1-3.8,3.8H1197.9a3.8,3.8,0,0,1-3.8-3.8v-3.7A3.8,3.8,0,0,1,1197.9,977.52Z"></path><path class="cls-9" d="M1197.9,1005.32h358.4a3.8,3.8,0,0,1,3.8,3.8v3.7a3.8,3.8,0,0,1-3.8,3.8H1197.9a3.8,3.8,0,0,1-3.8-3.8v-3.7A3.74,3.74,0,0,1,1197.9,1005.32Z"></path><path class="cls-9" d="M1197.9,1033h358.4a3.8,3.8,0,0,1,3.8,3.8v3.7a3.8,3.8,0,0,1-3.8,3.8H1197.9a3.8,3.8,0,0,1-3.8-3.8v-3.7A3.8,3.8,0,0,1,1197.9,1033Z"></path><path class="cls-9" d="M1197.9,1060.82h358.4a3.8,3.8,0,0,1,3.8,3.8v3.7a3.8,3.8,0,0,1-3.8,3.8H1197.9a3.8,3.8,0,0,1-3.8-3.8v-3.7A3.8,3.8,0,0,1,1197.9,1060.82Z"></path><path class="cls-9" d="M1197.9,1088.62h358.4a3.8,3.8,0,0,1,3.8,3.8v3.7a3.8,3.8,0,0,1-3.8,3.8H1197.9a3.8,3.8,0,0,1-3.8-3.8v-3.7A3.74,3.74,0,0,1,1197.9,1088.62Z"></path><path class="cls-10" d="M2367.3,1419.62c-1.4,20.2-7.5,38.3-18.4,51.5,0,0-146.5-115.9-186.6-119.7h-.5c-11.7-1.1-28.7-1.9-46.8-2.4-44.6-1.4-96.5-1.5-96.5-1.5.4-1.4.9-2.9,1.4-4.2v-.1c6.8-18.1,41.5-86.5,174.3-92.9,114.1-5.5,172.1,85.5,173.3,157.8C2367.6,1411.92,2367.5,1415.82,2367.3,1419.62Z"></path><path class="cls-9" d="M2367.3,1419.62c-1.4,20.2-7.5,38.3-18.4,51.5,0,0-146.5-115.9-186.6-119.7h-.5c-14.2-.9-128.6,3.8-146.8,3.2l4.9-11.3v-.1l2.7-6.3s37.8-53.6,135.2-38.2C2227.5,1309.52,2325.2,1384.82,2367.3,1419.62Z"></path><path class="cls-11" d="M2371.3,1805.82c-24.6,42.4-180,43.1-165.1,6.7,6.9-16.9,3.2-54.3-2.7-89.5h0c-1.8-10.8-3.8-21.4-5.8-31.1-5.5-27-10.8-47.4-10.8-47.4s110.8-122.7,110.8-78.1c0,17,9.4,45.8,21.1,74.8,8.9,22.2,19.2,44.6,27.5,62.1,9.3,19.4,16.2,32.7,16.2,32.7S2395.8,1763.42,2371.3,1805.82Z"></path><path class="cls-12" d="M2318.7,1641.12c-18.5,46.6-121.1,50.7-121.1,50.7-5.5-27-10.8-47.4-10.8-47.4s110.8-122.7,110.8-78.1C2297.6,1583.32,2307.1,1612.12,2318.7,1641.12Z"></path><path class="cls-12" d="M2371.3,1805.82c-24.6,42.4-180,43.1-165.1,6.7,6.9-16.9,3.2-54.3-2.7-89.5.7,1.9,22.1,62.7,73.3,62.7,52.1,0,69.4-82.6,69.4-82.6,9.3,19.4,16.2,32.7,16.2,32.7S2395.8,1763.42,2371.3,1805.82Z"></path><path class="cls-10" d="M2205.3,1734.52s3.8,53.4,50.7,60.1,85.5-14.9,97.4-76.6c0,0-1.5-14.1,18.6-4.5s123.5-32.7,197.8,6.7,51.3,450,37.2,467.1-217.9,0-217.9,0,2.3-15.6-1.4-26-284.2,6.7-284.2,6.7l-135.4-44.6s104.1-324,132.6-358.8,59.5-23.3,96.4-36.2C2197.2,1728.42,2203.6,1724.32,2205.3,1734.52Z"></path><path class="cls-13" d="M2008.2,1378.42c-38.4,116,13.2,133.9,24.1,202.3s75.4,125,181.5,92.2,104.1-125,104.1-125,53.6-1,48.6-49.6-45.6-38.7-65.4-22.8c0,0-43.6-88.3-82.3-88.3S2008.2,1378.42,2008.2,1378.42Z"></path><path class="cls-14" d="M1995,1467.22s21.9-24.9,52.7-19,114.5,13.6,139.1,9,87.6,19.7,96.7,49,14.1,15.5,14.1,15.5-.5-61.2-8-68.1-102.4-45.6-134.8-44.6-108.7-3-125.1,2.5-35.6,36.2-35.6,36.2Z"></path><path class="cls-15" d="M1997.8,1417.72s-24.4,22.9-29.7,58.6c0,0,31.9-8,54.3-52.1,0,0,14.1,16.5,76.6,22.7,0,0-11.2-9.3-16.4-22,0,0,52.2,34.3,97.9,22,0,0-13.8-7.1-20.5-22,0,0,76.4,31.4,103.4,31.2s28.3,52.1,28.3,52.1,5,45.9,9.8-15.9c2.6-34.7,40.3-28.4,40.3-28.4-6.8-16.6-89-80.6-89-80.6s-190.9-52.9-205.8-41.8-38.7,36.7-38.7,36.7Z"></path><path class="cls-10" d="M1997.8,1417.72s68.6-45.7,192.7-18.7c110.8,24,124.6,69.4,124.6,69.4h0a53.24,53.24,0,0,1,37.1,1.4c1.4.6,2.9,1.3,4.4,2h0s-39.4-115.1-177.6-142.3c-128.5-25.3-163,13.8-171,33.9S1979.9,1435.62,1997.8,1417.72Z"></path><path class="cls-16" d="M2097.8,1904s22.1,11.2,17.6,54.3-11.9,209.7-11.9,209.7l-77.3-25.5s52.7-124.8,58.7-182S2085.4,1904,2097.8,1904Z"></path><path class="cls-17" d="M2493.5,1899s-5,130.9,0,197.4c0,0-158.7-16.9-145.8,0L2180.6,2151l-19.3,4s4.9-78.3,63.5-103.1,219.2,54.5,236-5S2472.7,1866.32,2493.5,1899Z"></path><path class="cls-13" d="M2389.1,2185.12h-31.5l15.9-19.2a18.2,18.2,0,0,0-18.2-18.2H2190.6c-9.4-12.5,34.3-64.3,54-76.3h0a18,18,0,0,1,4.9-2.2c15.9-4,98.2,27.3,98.2,27.3C2415.2,2107.32,2389.1,2185.12,2389.1,2185.12Z"></path><path class="cls-12" d="M2389.1,2185.12h-31.5l15.9-19.2a18.2,18.2,0,0,0-18.2-18.2H2190.6c-9.4-12.5,34.3-64.3,54-76.3-.4.6-10.8,17.9,33.7,50.8,19.2,14.2,39.2,15.4,64.9,19.3s43.1,6.4,43.1-4-38.7-41.2-38.7-41.2C2415.2,2107.32,2389.1,2185.12,2389.1,2185.12Z"></path><path class="cls-18" d="M2285.3,2137.72a25,25,0,0,1-5.6,4.6,36.83,36.83,0,0,1-6.3,3.1,38.12,38.12,0,0,1-6.8,2,21.85,21.85,0,0,1-7.2.4l-.1-.3,6.5-2.4c2.2-.8,4.3-1.6,6.5-2.5s4.3-1.7,6.5-2.6l6.4-2.6Z"></path><path class="cls-18" d="M2259.4,2120.82a38.6,38.6,0,0,1-5.5,9.4,47.08,47.08,0,0,1-3.5,4.1c-.6.7-1.3,1.3-1.9,1.9s-1.3,1.3-2,1.9c-1.4,1.2-2.8,2.3-4.3,3.4-.7.5-1.5,1-2.3,1.5a18.84,18.84,0,0,1-2.4,1.4,31.81,31.81,0,0,1-10.3,3.7l-.1-.3c1.6-.9,3.1-1.6,4.6-2.6s3-1.9,4.4-2.9a75.09,75.09,0,0,0,8.3-6.6c2.7-2.3,5.2-4.8,7.7-7.3l3.6-3.9c1.2-1.3,2.3-2.6,3.4-4Z"></path><path class="cls-18" d="M2236.8,2105.42a83.21,83.21,0,0,1-6.5,11.7c-1.2,1.9-2.5,3.7-3.7,5.5s-2.6,3.6-3.9,5.3-2.7,3.5-4.1,5.2-2.8,3.4-4.4,5a93.54,93.54,0,0,1-9.6,9.3l-.2-.2,16-21.1,16.2-20.9Z"></path><path class="cls-17" d="M2493.5,2096.42a37.49,37.49,0,0,1,5.8-1.3c2-.3,3.9-.5,5.9-.7a69.18,69.18,0,0,1,35,7.1,68.73,68.73,0,0,1,10.3,6.5,58.28,58.28,0,0,1,8.7,8.5,55,55,0,0,1,10.8,21.1,106.5,106.5,0,0,0-14.8-17.3,81.18,81.18,0,0,0-8.6-6.9c-1.5-1-3-2.1-4.6-3-.8-.5-1.6-1-2.4-1.4s-1.6-.9-2.4-1.3a94.91,94.91,0,0,0-20.9-7.6A138.83,138.83,0,0,0,2493.5,2096.42Z"></path><rect class="cls-9" x="1106.1" y="2187.62" width="1824.8" height="36.4"></rect><path class="cls-19" d="M1639.9,2187.52h631.7a20.17,20.17,0,0,0,20.1-20.1h0a20.17,20.17,0,0,0-20.1-20.1H1639.9a20.17,20.17,0,0,0-20.1,20.1h0A20.23,20.23,0,0,0,1639.9,2187.52Z"></path><path class="cls-19" d="M1624.3,2147.42h505.3c14.4,0,24.8-11.8,23-26.2L2112.3,1794c-1.8-14.4-15-26.2-29.5-26.2H1577.6c-14.4,0-24.8,11.8-23,26.2l40.2,327.2C1596.6,2135.52,1609.9,2147.42,1624.3,2147.42Z"></path><path class="cls-20" d="M1624.3,2147.42h490.4c14.4,0,24.8-11.8,23-26.2L2097.4,1794c-1.8-14.4-15-26.2-29.5-26.2H1577.6c-14.4,0-24.8,11.8-23,26.2l40.2,327.2C1596.6,2135.52,1609.9,2147.42,1624.3,2147.42Z"></path><path class="cls-21" d="M1651,2147.42h50.5L2099.8,1813l-2.4-19.2a29.65,29.65,0,0,0-6.9-15.4l-439.5,369Zm382.2-379.8-434.5,364.7a27.76,27.76,0,0,1-3.9-11.2l-6.3-50.9,360.5-302.6Z"></path><path class="cls-22" d="M2159.3,2147.42h200.1A17.63,17.63,0,0,1,2377,2165v5a17.63,17.63,0,0,1-17.6,17.6H2159.3a17.63,17.63,0,0,1-17.6-17.6v-5A17.56,17.56,0,0,1,2159.3,2147.42Z"></path><path class="cls-14" d="M2316.5,1496.92s15.1-27.3,34-13.9-9.7,46.1-19.7,46.1S2310.3,1509.52,2316.5,1496.92Z"></path><path class="cls-10" d="M1903.7,925.92v459.5a6.7,6.7,0,0,1-6.7,6.7H1078.8a6.7,6.7,0,0,1-6.7-6.7V916.82l313.9,267h215.7Z"></path><path class="cls-17" d="M1901.8,1390a6.73,6.73,0,0,1-4.8,2H1078.9a6.7,6.7,0,0,1-6.7-6.7V1382l313.9-198.2h215.7Z"></path><rect class="cls-9" x="1194.1" y="635.82" width="365.9" height="234.1"></rect><polygon class="cls-23" points="1351.5 712.42 1351.5 803.62 1417 755.82 1351.5 712.42"></polygon><path class="cls-5" d="M1703.9,617h366.3a9,9,0,0,1,9,9v126.8a9,9,0,0,1-9,9H1703.9a9,9,0,0,1-9-9V626A9,9,0,0,1,1703.9,617Z"></path><path class="cls-4" d="M1359.7,1729.92H1023.6a9.71,9.71,0,0,0-9.7,9.7v188.8a9.71,9.71,0,0,0,9.7,9.7h194.9a123.34,123.34,0,0,0,58.7,65.5s-13.9-35.9-19.7-65.5h102.2a9.71,9.71,0,0,0,9.7-9.7v-188.8A9.77,9.77,0,0,0,1359.7,1729.92Z"></path><path class="cls-24" d="M1283.7,1795.92v97.6a1.37,1.37,0,0,1-1.4,1.4H1111.9a1.37,1.37,0,0,1-1.4-1.4v-97.6l65.3,55.6h44.9Z"></path><path class="cls-25" d="M1224.4,1854l59.3-58.1H1110.6l59.3,59.4-59.3,37.5v.7a1.37,1.37,0,0,0,1.4,1.4h170.4a1.78,1.78,0,0,0,1-.4Z"></path><polygon class="cls-26" points="1110.5 1795.92 1283.7 1795.92 1197.1 1873.22 1110.5 1795.92"></polygon><circle class="cls-27" cx="1282.2" cy="1798.43" r="16.9" transform="translate(-896.13 1433.4) rotate(-45)"></circle><circle class="cls-10" cx="2091.2" cy="938.82" r="50.6"></circle><circle class="cls-10" cx="1058.7" cy="803.62" r="25.3"></circle><circle class="cls-9" cx="860.9" cy="1071.92" r="50.6"></circle><circle class="cls-9" cx="2402.1" cy="497.92" r="78.8"></circle><circle class="cls-4" cx="188" cy="1221.82" r="184"></circle><path class="cls-9" d="M88.1,1250.82c0,.2-1.7,4.5-3.3,8.5a31.1,31.1,0,0,0-1.5,16l6.3,39.7c1,6.5-2,12.1-6.6,12.1h0c-4,0-7.8-4.2-8.9-9.9l-13.6-66.3Z"></path><g class="cls-28"><path class="cls-29" d="M86,1256.32a58.67,58.67,0,0,0,2.1-5.6l-27.5.1,13.6,66.3c.9,4.8,3.8,8.5,7.1,9.6-4.5-17.8-5.5-39.1-8.2-54.6C69.6,1257.92,79.2,1259.92,86,1256.32Z"></path></g><path class="cls-30" d="M297.5,1305.32s-68.2-54-182.6-31.6L103.4,1215c114.3-22.4,157.1-98.2,157.1-98.2Z"></path><g class="cls-28"><path class="cls-31" d="M286.9,1251.62c-54.7,15.4-105,3-162.9-6a127,127,0,0,0-15.1-1.8l5.9,30.1c114.3-22.4,182.6,31.6,182.6,31.6Z"></path></g><ellipse class="cls-9" cx="279.05" cy="1211.08" rx="39.1" ry="96.1" transform="translate(-228.14 76.47) rotate(-11.11)"></ellipse><path class="cls-9" d="M261.5,1122c18-3.5,40.4,33.1,49.9,81.8s2.7,91.1-15.3,94.7-40.4-33.1-50-81.8S243.4,1125.52,261.5,1122Z"></path><g class="cls-28"><path class="cls-31" d="M243.5,1152.52a9.61,9.61,0,0,1,2.8-1.1c12.8-2.5,28.7,23.6,35.5,58.2s1.9,64.9-10.9,67.4a10.07,10.07,0,0,1-3,.1c-9-14.8-17-36.1-21.8-60.4S240.7,1169.62,243.5,1152.52Z"></path></g><path class="cls-32" d="M73.5,1220.62l39.7-7.8-.2,2.1a94.28,94.28,0,0,0,10.1,53.7l1.8,3.4-39.7,7.8c-12.7,2.5-25-5.4-27.4-17.7l-2.9-14.9C52.4,1235.12,60.7,1223.12,73.5,1220.62Z"></path><path class="cls-33" d="M124.8,1272.12l-13.2,2.6-10.1,2-16.4,3.2c-12.7,2.5-25-5.4-27.4-17.7l-2.9-14.9c-2.4-12.2,6-24.2,18.7-26.7l18.1-3.6,9.1-1.8,12.5-2.4-.2,2.1a95.61,95.61,0,0,0,10.1,53.8Z"></path><path class="cls-9" d="M111.6,1274.72l-10.1,2a134.09,134.09,0,0,1-9.9-59.7l9.1-1.8A135.14,135.14,0,0,0,111.6,1274.72Z"></path><path class="cls-10" d="M287.4,1208.62c1.4,7.2-2.1,14.7-8.9,18.9l-25.5,15.7a238,238,0,0,1-10.5-53.5l29.6,4.9A17.89,17.89,0,0,1,287.4,1208.62Z"></path><path class="cls-23" d="M276.3,1210.72c1.3,6.6,4.8,11.4,7.8,10.8s4.5-6.4,3.2-13-4.8-11.4-7.8-10.8S275,1204.22,276.3,1210.72Z"></path><g class="cls-28"><path class="cls-32" d="M123.1,1268.72a99,99,0,0,1-8.6-24.3c-18.3-1.8-40.6,1.6-60.1-.8a23.25,23.25,0,0,0,.4,3.7l2.9,14.9c2.4,12.3,14.7,20.2,27.4,17.7l16.4-3.2,10.1-2,13.2-2.6Z"></path></g><path class="cls-9" d="M3136.1,1005.32c-14,129.6-124.8,226.9-255.2,224.1-7.2-.2-14.4-.6-21.7-1.4q-7.8-.9-15.3-2.1c-130.9-22.4-221.7-142.8-207.3-274.7,15-137.9,138.9-237.6,276.9-222.6S3151.1,867.42,3136.1,1005.32Z"></path><path class="cls-34" d="M2982.4,1210.42a179.73,179.73,0,0,0,1.8-25.4,132.65,132.65,0,0,0-3.1-30.1c-3.7-15.8-11.3-28.9-24.5-38.7-1.8-1.3-4.1-2-5.3-4.1a77.19,77.19,0,0,1,15.5,6.2c5.4,2.8,10.3,6.6,15.2,10.1,2.4,2.5,5,5,7.3,7.6,8.7,9.8,14.5,21.2,18.4,33.6.2.6.5,1.2.7,1.8a174.6,174.6,0,0,1,4.3,23.8A238.2,238.2,0,0,1,2982.4,1210.42Z"></path><path class="cls-34" d="M2795.8,1097.22c-.3,1-1.2,1.1-1.9,1.4a49.44,49.44,0,0,0-10.6,6.3c-10.2,8.1-17,18.7-21.7,30.7-5.1,12.7-7.9,25.9-9.4,39.5-.5,4.9-1,9.8-1.4,14.7a232.43,232.43,0,0,1-26-19.2,137.72,137.72,0,0,1,11-28.1c.1-.2.1-.5.2-.7,3.7-5.9,7.3-11.8,11.9-17.2a89.73,89.73,0,0,1,21.3-18c.4-.2.9-.4,1.3-.6A80.13,80.13,0,0,1,2795.8,1097.22Z"></path><path class="cls-30" d="M2982.4,1210.42a250.28,250.28,0,0,1-101.5,19q5.1-47.85,10.4-95.7c.3-2.6.5-5.2.7-7.8l2.1-.7c11.4-3.8,19.4-11.2,23.8-22.5,5.6,1,11.1,1.6,16.6,3.1,5.8,1.6,11.1,4.3,16.7,6.2,1.2,2,3.5,2.8,5.3,4.1,13.2,9.8,20.8,23,24.5,38.7a127.21,127.21,0,0,1,3.1,30.1A166.38,166.38,0,0,1,2982.4,1210.42Z"></path><path class="cls-30" d="M2855.2,1122.32c-3.7,34.5-7.5,69-11.2,103.5a250.55,250.55,0,0,1-93.1-36c.3-4.9.8-9.8,1.4-14.7a152.77,152.77,0,0,1,9.4-39.5c4.8-11.9,11.5-22.6,21.7-30.7a43.68,43.68,0,0,1,10.6-6.3c.8-.3,1.7-.4,1.9-1.4,2.8-.8,5.7-1.6,8.5-2.3,11-2.8,22.2-2.4,33.3-.8.2,1.2.4,2.3.6,3.5a37.36,37.36,0,0,0,17.1,23.4A4.44,4.44,0,0,0,2855.2,1122.32Z"></path><path class="cls-35" d="M2880.9,1229.42c-7.2-.2-14.4-.6-21.7-1.4q-7.8-.9-15.3-2.1c3.7-34.5,7.5-69,11.2-103.5a8,8,0,0,1,.3-1.5c11.6,6.3,23.8,7.7,36.6,5-.2,2.6-.5,5.2-.7,7.8C2887.9,1165.52,2884.4,1197.52,2880.9,1229.42Z"></path><path class="cls-22" d="M2837.7,1094c-11.2-1.5-22.3-1.9-33.3.8-2.9.7-5.7,1.6-8.5,2.3a79.29,79.29,0,0,0-25.4,8.9c-.4.2-.9.4-1.3.6,1.4-15.8,2.8-31.6,4.3-47.3l10.5-109.5c2.2-22.1,7-43.6,16.6-63.8,10-21.1,24.2-38.6,44.9-50.2a98.33,98.33,0,0,1,49.2-12.4c21.3.1,41.4,4.9,59.8,15.9,12.6,7.5,21.9,18,29.3,30.7,15.5,26.5,20.2,55.2,18.8,85.3-1,21.7-4.3,43.3-6.9,64.8-4.3,35.5-8.7,70.9-13.2,106.4l-.3,1.8c-5-3.6-9.8-7.3-15.2-10.1a71.71,71.71,0,0,0-15.5-6.2c-5.6-1.9-10.9-4.7-16.7-6.2-5.5-1.5-11.1-2.1-16.6-3.1a86.81,86.81,0,0,1,3-39.2,5.57,5.57,0,0,1,2.3-3.1,111.42,111.42,0,0,0,21.7-20,163.76,163.76,0,0,0,23.8-37.6c.3-.7.2-2.1,1.6-1.8,5.3,1.3,8.8-1.8,12-5.2a42.24,42.24,0,0,0,8.9-16.2c2.5-7.9,3.8-15.9,1.9-24.1-.7-3-1.8-5.7-4.7-7.7-.4,2-.8,3.8-1.1,5.6-1.7,8.1-4.1,16-8.8,23-2.9,4.2-6.3,8.1-11.6,9.6h0c-.4-1,.2-2,.5-2.9,4.1-14.3,6.8-28.8,6.6-43.8-.1-9.4-1.4-18.6-5.5-27.3a35,35,0,0,0-9.9-12.7c1.5,22.2,2.4,43.9,5.9,65.6a5.72,5.72,0,0,1-1.4-.1,215.66,215.66,0,0,1-42.2-7.4c-16.5-4.5-32.3-10.7-46.4-20.6-15.8-11.1-26.7-25.5-29.8-45a82.57,82.57,0,0,1-.6-18.6,11.51,11.51,0,0,0-1.4,1.7,277.08,277.08,0,0,0-16.6,32,161.29,161.29,0,0,0-9.9,28.6c-2.7,11.2-4,22.5-.7,33.9-12.9-11-15.5-25.7-15.2-41.8-3.4,2-5,4.9-6.2,8-3.7,9.6-3.6,19.4-1.4,29.3a31.48,31.48,0,0,0,6.1,13.7c2.1,2.6,4.6,4.8,8.3,4.5,1.6-.2,2,.3,2.3,1.8a119.29,119.29,0,0,0,4.1,15.6c5.9,18.5,14.3,35.6,27.4,50.2a7.73,7.73,0,0,1,2.2,5.4C2843.4,1069.12,2840.9,1081.62,2837.7,1094Z"></path><path class="cls-13" d="M2967.1,985.82c5.3-1.5,8.6-5.3,11.6-9.6,4.7-6.9,7.1-14.8,8.8-23,.4-1.8.7-3.6,1.1-5.6,2.8,2,4,4.8,4.7,7.7,1.9,8.2.7,16.2-1.9,24.1a41.52,41.52,0,0,1-8.9,16.2c-3.2,3.5-6.7,6.5-12,5.2-1.4-.3-1.3,1.1-1.6,1.8a163.76,163.76,0,0,1-23.8,37.6,111.42,111.42,0,0,1-21.7,20,5.94,5.94,0,0,0-2.3,3.1,86.81,86.81,0,0,0-3,39.2c-4.4,11.3-12.4,18.7-23.8,22.5l-2.1.7c-12.8,2.6-25.1,1.3-36.6-5-8.8-5.5-14.7-13.2-17.1-23.4-.3-1.1-.4-2.3-.6-3.5,3.3-12.4,5.7-24.9,5.4-37.9a7.91,7.91,0,0,0-2.2-5.4c-13.1-14.5-21.5-31.7-27.4-50.2a137.53,137.53,0,0,1-4.1-15.6c-.3-1.4-.7-1.9-2.3-1.8-3.7.3-6.2-1.9-8.3-4.5a31.48,31.48,0,0,1-6.1-13.7c-2.2-9.9-2.4-19.7,1.4-29.3,1.2-3.2,2.9-6.1,6.2-8-.3,16,2.4,30.8,15.2,41.8-3.4-11.4-2-22.7.7-33.9a179.06,179.06,0,0,1,9.9-28.6,277.08,277.08,0,0,1,16.6-32,7.46,7.46,0,0,1,1.4-1.7,82.76,82.76,0,0,0,.6,18.6c3.1,19.5,14.1,33.9,29.8,45,14.1,10,29.9,16.1,46.4,20.6a224.76,224.76,0,0,0,42.2,7.4,7.6,7.6,0,0,1,1.4.1c-3.5-21.6-4.4-43.3-5.9-65.6a35.29,35.29,0,0,1,9.9,12.7c4.1,8.6,5.4,17.8,5.5,27.3.2,15-2.5,29.5-6.6,43.8-.2,1.1-.9,2-.5,2.9l-.2.2.1.1C2967,986,2967.1,985.92,2967.1,985.82Z"></path><path class="cls-36" d="M2967.1,985.82c0,.1-.1.1-.1.2a.1.1,0,0,1-.1-.1l.2-.1Z"></path><path class="cls-9" d="M1738.2,658.72h297.6a5.85,5.85,0,0,1,5.9,5.9v1.1a5.85,5.85,0,0,1-5.9,5.9H1738.2a5.85,5.85,0,0,1-5.9-5.9v-1.1A5.91,5.91,0,0,1,1738.2,658.72Z"></path><path class="cls-9" d="M1738.2,683h297.6a5.85,5.85,0,0,1,5.9,5.9V690a5.85,5.85,0,0,1-5.9,5.9H1738.2a5.85,5.85,0,0,1-5.9-5.9v-1.1A5.91,5.91,0,0,1,1738.2,683Z"></path><path class="cls-9" d="M1738.2,707.32h205.7a5.85,5.85,0,0,1,5.9,5.9v1.1a5.85,5.85,0,0,1-5.9,5.9H1738.2a5.85,5.85,0,0,1-5.9-5.9v-1.1A5.91,5.91,0,0,1,1738.2,707.32Z"></path><path class="cls-10" d="M1738.3,300.12a80.5,80.5,0,1,1-32,109.5C1684.7,370.22,1699.5,321,1738.3,300.12Zm61.8,96.8c6-3.3,12-6.5,17.9-9.8,4.3-2.4,4.6-7.5.6-10.2-1.1-.7-1.2-1.2-.6-2.3a5.7,5.7,0,0,0-2-7.8c-.4-.2-.8-.4-1.3-.6-1.1-.4-1.6-.6-.9-1.9,2-3.6.6-7.3-3.2-9.1-1.1-.5-1.7-1-1.3-2.5a7.22,7.22,0,0,0-3.1-8c-2.6-1.8-5.4-1.7-8.2-.1-5.8,3.2-11.7,6.3-17.5,9.6-1.4.8-1.8.6-1.8-1a67.83,67.83,0,0,0-1.4-11.9,21.81,21.81,0,0,0-8.9-13.6,6.19,6.19,0,0,0-6.9-.3,5.82,5.82,0,0,0-3.1,5.1,5.88,5.88,0,0,0,1.4,3.7c2.3,3.3,2.4,6.7,1.5,10.5a157.38,157.38,0,0,0-3.1,15.5,29.24,29.24,0,0,0,3.4,17.3c4.2,8.5,9,16.7,13.5,25,1.8,3.3,3.8,3.9,7.1,2.1Zm-52.3,6.6h0c3.2,5.8,6.3,11.5,9.4,17.3.9,1.7,2.1,2.5,4,1.5,3.8-2,7.6-4.1,11.3-6.2,2.2-1.2,2.5-2.4,1.3-4.6-6.2-11.5-12.5-22.9-18.8-34.4-1.3-2.3-2.2-2.5-4.6-1.2-3.6,1.9-7.2,3.9-10.7,5.8-2.5,1.4-2.7,2.2-1.4,4.7,3.3,5.7,6.4,11.4,9.5,17.1Z"></path><path class="cls-35" d="M1800.1,396.92c-5.9,3.2-11.8,6.5-17.7,9.7-3.3,1.8-5.3,1.2-7.1-2.1-4.6-8.3-9.3-16.5-13.5-25a29.24,29.24,0,0,1-3.4-17.3c.7-5.2,1.9-10.4,3.1-15.5.9-3.8.8-7.2-1.5-10.5a6,6,0,0,1-1.4-3.7,5.27,5.27,0,0,1,3.1-5.1,6.21,6.21,0,0,1,6.9.3,21.81,21.81,0,0,1,8.9,13.6,67.83,67.83,0,0,1,1.4,11.9c.1,1.6.4,1.9,1.8,1,5.8-3.2,11.7-6.4,17.5-9.6,2.8-1.5,5.5-1.7,8.2.1a7.08,7.08,0,0,1,3.1,8,1.87,1.87,0,0,0,1.3,2.5c3.8,1.8,5.1,5.5,3.2,9.1-.7,1.3-.2,1.5.9,1.9a5.71,5.71,0,0,1,3.8,7.1,3.79,3.79,0,0,1-.6,1.3c-.6,1.2-.5,1.6.6,2.3,4.1,2.8,3.8,7.8-.6,10.2C1812.1,390.42,1806.1,393.62,1800.1,396.92Z"></path><path class="cls-35" d="M1747.8,403.52l-9.3-17.1c-1.4-2.5-1.1-3.3,1.4-4.7,3.6-2,7.1-3.9,10.7-5.8,2.4-1.3,3.3-1,4.6,1.2,6.3,11.5,12.5,22.9,18.8,34.4,1.2,2.2.9,3.4-1.3,4.6-3.8,2.1-7.5,4.1-11.3,6.2-1.9,1-3.1.2-4-1.5-3.3-5.8-6.5-11.6-9.6-17.3Z"></path><path class="cls-10" d="M952.5,1189.22a94.88,94.88,0,1,1-121,58.7C848.9,1198,903.5,1172,952.5,1189.22ZM917,1319.92c7.6,2.6,15.2,5.3,22.7,7.9,5.5,1.9,10.2-1.9,9.4-7.6-.2-1.5,0-2,1.6-2.4a6.69,6.69,0,0,0,4.7-9.4c-.5-1.2-.8-1.8,1-2.3,4.7-1.1,6.9-5.3,5.4-10-.4-1.4-.4-2.3,1.1-3.1a8.32,8.32,0,0,0,4.4-9c-.5-3.7-2.8-6-6.4-7.2-7.4-2.5-14.8-5.2-22.2-7.7-1.9-.6-1.9-1.1-.5-2.4a76.84,76.84,0,0,0,9.2-10.6,25.08,25.08,0,0,0,4.8-18.5,7.16,7.16,0,0,0-5.2-6.2,6.49,6.49,0,0,0-6.9,1.4,7.07,7.07,0,0,0-2.1,4.1c-1,4.6-4,7.4-8,9.7-5.4,3-10.8,6.1-15.9,9.6-6.2,4.2-9.8,10.1-12.4,16.7-4,10.4-7.4,21-11.1,31.6-1.5,4.2-.4,6.4,3.8,7.9,7.6,2.3,15.1,4.9,22.6,7.5Zm-47.2-40.5h0c-2.5,7.3-5.1,14.7-7.6,22-.8,2.1-.5,3.8,1.8,4.7,4.8,1.7,9.6,3.4,14.4,5,2.8,1,4.1.3,5.1-2.5,5.1-14.5,10.1-29.1,15.2-43.7,1-2.9.5-3.9-2.5-5-4.5-1.6-9.1-3.2-13.6-4.7-3.2-1.1-4.1-.6-5.2,2.6C874.8,1265,872.3,1272.22,869.8,1279.42Z"></path><path class="cls-35" d="M917,1319.92l-22.5-7.8c-4.2-1.5-5.3-3.7-3.8-7.9,3.7-10.5,7.1-21.2,11.1-31.6,2.6-6.6,6.2-12.4,12.4-16.7,5.1-3.5,10.5-6.6,15.9-9.6,4-2.2,7-5,8-9.7a7.07,7.07,0,0,1,2.1-4.1,6.49,6.49,0,0,1,6.9-1.4,7.3,7.3,0,0,1,5.2,6.2,25.42,25.42,0,0,1-4.8,18.5,85.32,85.32,0,0,1-9.2,10.6c-1.4,1.3-1.3,1.8.5,2.4,7.4,2.5,14.8,5.2,22.2,7.7,3.6,1.2,5.9,3.5,6.4,7.2a8.6,8.6,0,0,1-4.4,9c-1.5.9-1.5,1.8-1.1,3.1,1.4,4.7-.8,8.8-5.4,10-1.7.4-1.5,1-1,2.3a6.64,6.64,0,0,1-3.2,8.9,8.8,8.8,0,0,1-1.5.5c-1.5.4-1.8.8-1.6,2.4.8,5.8-3.9,9.5-9.4,7.6C932.1,1325.22,924.6,1322.52,917,1319.92Z"></path><path class="cls-35" d="M869.8,1279.42c2.5-7.2,5-14.5,7.6-21.7,1.1-3.2,2-3.6,5.2-2.6,4.5,1.6,9.1,3.1,13.6,4.7,3,1.1,3.5,2,2.5,5-5,14.6-10.1,29.1-15.2,43.7-1,2.8-2.3,3.5-5.1,2.5-4.8-1.6-9.6-3.3-14.4-5-2.4-.8-2.6-2.5-1.8-4.7,2.5-7.2,5.1-14.5,7.6-21.9Z"></path></g></g></svg>